<svg width="1068" height="337" viewBox="0 0 1068 337" fill="none" xmlns="http://www.w3.org/2000/svg">
<g clip-path="url(#clip0_27_2)">
<path d="M200.88 9.04811C208.817 8.05664 227.604 22.5785 238.94 35.0827C239.081 35.2383 239.288 35.3164 239.497 35.2973C247.127 34.6028 251.467 34.4353 258.306 35.2665C258.6 35.3021 258.885 35.1407 258.998 34.8678C260.371 31.5572 260.173 30.3128 268.456 22.3544C277.112 14.038 288.43 9.38077 294.422 11.3767C300.414 13.3727 302.078 24.3503 301.413 38.6546C300.753 52.8253 299.523 57.8832 296.829 66.6806C296.78 66.8398 296.793 67.0145 296.862 67.1656C301.025 76.1761 298.422 86.5943 299.082 90.8816C299.748 95.2061 316.558 102.704 317.724 112.837C318.89 122.971 298.417 135.79 296.419 136.788C294.535 137.73 288.926 138.714 283.706 138.782C283.248 138.788 282.923 139.236 283.063 139.672C288.114 155.374 287.733 173.535 286.1 181.697C284.445 189.967 279.172 206.139 272.563 214.816C272.489 214.913 272.443 215.031 272.43 215.152C268.177 253.791 268.695 266.936 273.707 278.001C273.756 278.11 273.837 278.205 273.935 278.273C284.212 285.387 288.927 289.528 292.092 297.462L296.556 310.528C296.667 310.852 296.505 311.212 296.192 311.353C253.255 330.64 229.491 335.824 185.696 329.748C185.612 329.736 185.523 329.741 185.44 329.761C146.921 339.413 110.644 339.696 91.0252 327.401C71.3846 315.093 66.3913 301.454 67.057 290.809C67.7184 280.234 73.2924 266.926 86.109 256.747C86.2691 256.62 86.3645 256.426 86.3648 256.221C86.4243 218.644 104.408 181.63 127.643 158.078C150.869 134.538 154.828 134.489 175.047 114.697C175.172 114.574 175.248 114.398 175.251 114.223C175.558 95.1436 178.18 85.8305 186.132 71.4356C186.196 71.3192 186.226 71.1841 186.214 71.0515C183.553 40.9234 192.908 10.0438 200.88 9.04811Z" fill="#D9D9D9"/>
<path d="M184.816 216.283L190.634 192.677C190.826 191.897 192.009 192.053 191.983 192.856C191.674 202.404 191.281 219.218 192.224 222.281C193.556 226.606 212.198 286.484 215.527 290.809C218.856 295.133 222.836 300.13 225.181 306.443C226.229 308.68 227.128 309.59 229.078 310.713C229.142 310.749 229.213 310.775 229.285 310.789C234.083 311.694 236.801 311.669 241.075 310.906C241.472 310.836 241.711 310.428 241.584 310.046L240.123 305.665C239.87 304.909 240.92 304.43 241.327 305.115L244.325 310.161C244.428 310.334 244.605 310.453 244.806 310.479C247.094 310.774 248.557 310.663 250.872 309.701C251.209 309.56 251.36 309.168 251.213 308.833L249.355 304.614C249.054 303.931 249.933 303.347 250.447 303.887L252.765 306.325C253.205 306.789 253.959 306.427 253.834 305.799C252.587 299.545 248.839 295.442 237.385 288.612C237.245 288.529 237.143 288.415 237.095 288.259C236.226 285.486 227.528 257.229 227.844 238.581C228.155 220.23 238.328 212.702 241.857 195.426C242.006 194.696 243.074 194.678 243.187 195.414C244.686 205.134 243.388 213.793 237.861 228.149C237.635 228.737 238.269 229.283 238.807 228.952C258.41 216.881 273.827 194.14 275.447 187.019C277.106 179.728 279.32 157.76 271.868 136.359C271.815 136.207 271.708 136.079 271.567 136C265.417 132.546 259.811 130.98 248.684 129.313C247.955 129.204 247.925 128.242 248.653 128.131C260.78 126.302 273.668 129.411 292.616 132.669C293.41 132.806 293.698 131.712 292.941 131.436L274.809 124.83C274.044 124.551 274.355 123.405 275.157 123.551L289.429 126.143C297.104 127.518 300.469 126.703 304.19 122.468C304.475 122.143 304.363 121.638 303.978 121.443C299.841 119.342 298.421 117.471 298.088 113.235C298.085 113.192 298.086 113.148 298.092 113.105C298.512 109.689 299.915 108.241 303.952 107.236C304.555 107.087 304.696 106.244 304.174 105.908C295.54 100.359 288.763 90.0666 288.763 87.555C288.763 84.8937 290.427 82.8978 291.426 73.9162C292.413 65.0368 268.348 39.9009 242.39 40.294C241.943 40.3008 241.639 40.7448 241.781 41.1675C244.064 47.942 244.356 50.5971 243.237 54.3533C243.08 54.879 242.388 54.9715 242.078 54.5189C230.883 38.1724 213.687 20.9725 205.873 18.6951C198.001 16.4008 187.585 53.7184 199.34 76.2446C199.575 76.6957 199.252 77.2426 198.742 77.2426H194.57C194.352 77.2426 194.145 77.3524 194.021 77.5327C185.307 90.2249 184.419 100.187 185.545 119.47C185.559 119.688 185.459 119.907 185.287 120.041C148.746 148.576 129.596 161.485 111.997 193.007C94.442 224.453 95.7865 234.062 95.6873 263.422C95.6864 263.686 95.5284 263.932 95.2866 264.038C90.8119 266.005 89.5336 266.999 84.0345 271.847C78.3754 276.837 73.382 295.798 83.3687 307.774C93.3555 319.75 108.668 327.401 125.979 328.399C143.289 329.397 141.292 329.064 147.95 328.731C154.608 328.399 189.894 318.086 196.219 316.756C202.544 315.425 205.54 315.093 214.528 315.093C223.516 315.093 195.22 285.819 178.243 278.168C163.623 271.58 126.618 265.461 106.564 267.732C105.749 267.824 105.16 266.11 105.918 265.797C123.346 258.616 146.095 258.29 177.578 269.611C177.936 269.74 178.339 269.54 178.451 269.177C185.726 245.556 188.44 232.576 169.901 217.277C159.775 209.628 145.691 212.001 126.61 221.405C125.903 221.753 125.277 220.83 125.887 220.331C147.444 202.712 164.074 201.375 183.743 216.643C184.126 216.941 184.7 216.754 184.816 216.283Z" fill="white"/>
<path d="M290.427 19.6931C294.315 21.3121 292.421 40.9359 289.043 56.0546C288.926 56.5769 288.272 56.7476 287.909 56.3532L285.258 53.4628C285.156 53.3519 285.095 53.2082 285.085 53.058C284.831 49.2834 284.914 46.7653 285.53 43.3923C285.656 42.7027 284.762 42.2683 284.315 42.8088L280.184 47.807C279.955 48.083 279.55 48.1291 279.265 47.9113L270.282 41.0289C270.004 40.8159 269.937 40.4267 270.132 40.1359C276.594 30.5037 286.503 18.0591 290.427 19.6931Z" fill="white"/>
<path d="M202.877 48.3017C203.196 54.3599 204.806 61.7764 209.858 68.403C210.159 68.7989 210.772 68.7162 211.001 68.2742C212.238 65.8862 213.786 64.5777 216.885 62.9378C217.228 62.7564 217.35 62.3238 217.155 61.9891C215.637 59.391 215.045 57.4895 214.894 54.2959C214.871 53.8201 215.351 53.4875 215.794 53.6644L220.298 55.4651C220.805 55.6675 221.324 55.212 221.173 54.6884C217.853 43.2061 208.749 27.3921 205.54 28.6749C202.211 30.0056 202.544 41.9812 202.877 48.3017Z" fill="#D9D9D9"/>
<path d="M250.876 88.1631C250.05 87.9815 247.53 87.3833 246.153 86.557C244.488 85.5591 252.478 83.5631 252.478 83.5631C256.524 82.4055 258.689 82.1733 262.34 82.2305C262.421 82.2318 262.504 82.2484 262.579 82.2797C267.403 84.2743 270.402 88.7479 271.295 95.1575C271.373 95.7104 270.756 96.0863 270.276 95.7996C269.323 95.2314 268.045 94.5408 267.458 94.5408H258.256C258.174 94.5408 258.096 94.5255 258.02 94.4962C254.452 93.1037 253.251 91.4138 251.299 88.4532C251.201 88.3048 251.05 88.201 250.876 88.1631Z" fill="#D9D9D9"/>
<path d="M257.804 89.8836C259.275 89.8836 260.467 88.6921 260.467 87.2223C260.467 85.7525 259.275 84.561 257.804 84.561C256.333 84.561 255.141 85.7525 255.141 87.2223C255.141 88.6921 256.333 89.8836 257.804 89.8836Z" fill="white"/>
<path d="M241.492 240.577C242.615 238.054 256.277 227.491 260.538 224.237C261.007 223.879 261.674 224.264 261.608 224.851C259.31 245.307 263.488 267.956 264.462 271.847C265.46 275.839 265.136 281.093 267.791 283.157C270.445 285.223 280.379 291.736 281.439 293.802C282.481 295.833 284.791 300.007 283.193 302.329C283.136 302.411 283.056 302.476 282.967 302.52C280.524 303.726 279.035 303.817 276.881 303.789C276.616 303.786 276.38 303.625 276.278 303.382L273.728 297.295C273.411 296.539 272.272 296.914 272.467 297.71L273.959 303.809C274.046 304.163 273.832 304.521 273.478 304.609C270.405 305.372 268.056 305.687 262.32 305.467C262.014 305.455 261.756 305.235 261.692 304.937C261.187 302.581 260.602 300.88 257.804 297.462C254.808 293.802 250.48 289.811 248.483 285.819C246.486 281.827 240.161 243.571 241.492 240.577Z" fill="white"/>
</g>
<path d="M462.227 132.5H442.318C441.955 129.924 441.212 127.636 440.091 125.636C438.97 123.606 437.53 121.879 435.773 120.455C434.015 119.03 431.985 117.939 429.682 117.182C427.409 116.424 424.939 116.045 422.273 116.045C417.455 116.045 413.258 117.242 409.682 119.636C406.106 122 403.333 125.455 401.364 130C399.394 134.515 398.409 140 398.409 146.455C398.409 153.091 399.394 158.667 401.364 163.182C403.364 167.697 406.152 171.106 409.727 173.409C413.303 175.712 417.439 176.864 422.136 176.864C424.773 176.864 427.212 176.515 429.455 175.818C431.727 175.121 433.742 174.106 435.5 172.773C437.258 171.409 438.712 169.758 439.864 167.818C441.045 165.879 441.864 163.667 442.318 161.182L462.227 161.273C461.712 165.545 460.424 169.667 458.364 173.636C456.333 177.576 453.591 181.106 450.136 184.227C446.712 187.318 442.621 189.773 437.864 191.591C433.136 193.379 427.788 194.273 421.818 194.273C413.515 194.273 406.091 192.394 399.545 188.636C393.03 184.879 387.879 179.439 384.091 172.318C380.333 165.197 378.455 156.576 378.455 146.455C378.455 136.303 380.364 127.667 384.182 120.545C388 113.424 393.182 108 399.727 104.273C406.273 100.515 413.636 98.6364 421.818 98.6364C427.212 98.6364 432.212 99.3939 436.818 100.909C441.455 102.424 445.561 104.636 449.136 107.545C452.712 110.424 455.621 113.955 457.864 118.136C460.136 122.318 461.591 127.106 462.227 132.5ZM495.886 194.318C491.432 194.318 487.462 193.545 483.977 192C480.492 190.424 477.735 188.106 475.705 185.045C473.705 181.955 472.705 178.106 472.705 173.5C472.705 169.621 473.417 166.364 474.841 163.727C476.265 161.091 478.205 158.97 480.659 157.364C483.114 155.758 485.902 154.545 489.023 153.727C492.174 152.909 495.477 152.333 498.932 152C502.992 151.576 506.265 151.182 508.75 150.818C511.235 150.424 513.038 149.848 514.159 149.091C515.28 148.333 515.841 147.212 515.841 145.727V145.455C515.841 142.576 514.932 140.348 513.114 138.773C511.326 137.197 508.78 136.409 505.477 136.409C501.992 136.409 499.22 137.182 497.159 138.727C495.098 140.242 493.735 142.152 493.068 144.455L475.159 143C476.068 138.758 477.856 135.091 480.523 132C483.189 128.879 486.629 126.485 490.841 124.818C495.083 123.121 499.992 122.273 505.568 122.273C509.447 122.273 513.159 122.727 516.705 123.636C520.28 124.545 523.447 125.955 526.205 127.864C528.992 129.773 531.189 132.227 532.795 135.227C534.402 138.197 535.205 141.758 535.205 145.909V193H516.841V183.318H516.295C515.174 185.5 513.674 187.424 511.795 189.091C509.917 190.727 507.659 192.015 505.023 192.955C502.386 193.864 499.341 194.318 495.886 194.318ZM501.432 180.955C504.28 180.955 506.795 180.394 508.977 179.273C511.159 178.121 512.871 176.576 514.114 174.636C515.356 172.697 515.977 170.5 515.977 168.045V160.636C515.371 161.03 514.538 161.394 513.477 161.727C512.447 162.03 511.28 162.318 509.977 162.591C508.674 162.833 507.371 163.061 506.068 163.273C504.765 163.455 503.583 163.621 502.523 163.773C500.25 164.106 498.265 164.636 496.568 165.364C494.871 166.091 493.553 167.076 492.614 168.318C491.674 169.53 491.205 171.045 491.205 172.864C491.205 175.5 492.159 177.515 494.068 178.909C496.008 180.273 498.462 180.955 501.432 180.955ZM569.591 99.9091V193H550.227V99.9091H569.591ZM605.011 194.318C600.557 194.318 596.587 193.545 593.102 192C589.617 190.424 586.86 188.106 584.83 185.045C582.83 181.955 581.83 178.106 581.83 173.5C581.83 169.621 582.542 166.364 583.966 163.727C585.39 161.091 587.33 158.97 589.784 157.364C592.239 155.758 595.027 154.545 598.148 153.727C601.299 152.909 604.602 152.333 608.057 152C612.117 151.576 615.39 151.182 617.875 150.818C620.36 150.424 622.163 149.848 623.284 149.091C624.405 148.333 624.966 147.212 624.966 145.727V145.455C624.966 142.576 624.057 140.348 622.239 138.773C620.451 137.197 617.905 136.409 614.602 136.409C611.117 136.409 608.345 137.182 606.284 138.727C604.223 140.242 602.86 142.152 602.193 144.455L584.284 143C585.193 138.758 586.981 135.091 589.648 132C592.314 128.879 595.754 126.485 599.966 124.818C604.208 123.121 609.117 122.273 614.693 122.273C618.572 122.273 622.284 122.727 625.83 123.636C629.405 124.545 632.572 125.955 635.33 127.864C638.117 129.773 640.314 132.227 641.92 135.227C643.527 138.197 644.33 141.758 644.33 145.909V193H625.966V183.318H625.42C624.299 185.5 622.799 187.424 620.92 189.091C619.042 190.727 616.784 192.015 614.148 192.955C611.511 193.864 608.466 194.318 605.011 194.318ZM610.557 180.955C613.405 180.955 615.92 180.394 618.102 179.273C620.284 178.121 621.996 176.576 623.239 174.636C624.481 172.697 625.102 170.5 625.102 168.045V160.636C624.496 161.03 623.663 161.394 622.602 161.727C621.572 162.03 620.405 162.318 619.102 162.591C617.799 162.833 616.496 163.061 615.193 163.273C613.89 163.455 612.708 163.621 611.648 163.773C609.375 164.106 607.39 164.636 605.693 165.364C603.996 166.091 602.678 167.076 601.739 168.318C600.799 169.53 600.33 171.045 600.33 172.864C600.33 175.5 601.284 177.515 603.193 178.909C605.133 180.273 607.587 180.955 610.557 180.955ZM690.807 220.636C684.534 220.636 679.155 219.773 674.67 218.045C670.216 216.348 666.67 214.03 664.034 211.091C661.398 208.152 659.686 204.848 658.898 201.182L676.807 198.773C677.352 200.167 678.216 201.47 679.398 202.682C680.58 203.894 682.14 204.864 684.08 205.591C686.049 206.348 688.443 206.727 691.261 206.727C695.473 206.727 698.943 205.697 701.67 203.636C704.428 201.606 705.807 198.197 705.807 193.409V180.636H704.989C704.14 182.576 702.867 184.409 701.17 186.136C699.473 187.864 697.292 189.273 694.625 190.364C691.958 191.455 688.777 192 685.08 192C679.837 192 675.064 190.788 670.761 188.364C666.489 185.909 663.08 182.167 660.534 177.136C658.019 172.076 656.761 165.682 656.761 157.955C656.761 150.045 658.049 143.439 660.625 138.136C663.201 132.833 666.625 128.864 670.898 126.227C675.201 123.591 679.913 122.273 685.034 122.273C688.943 122.273 692.216 122.939 694.852 124.273C697.489 125.576 699.61 127.212 701.216 129.182C702.852 131.121 704.11 133.03 704.989 134.909H705.716V123.182H724.943V193.682C724.943 199.621 723.489 204.591 720.58 208.591C717.67 212.591 713.64 215.591 708.489 217.591C703.367 219.621 697.473 220.636 690.807 220.636ZM691.216 177.455C694.337 177.455 696.973 176.682 699.125 175.136C701.307 173.561 702.973 171.318 704.125 168.409C705.307 165.47 705.898 161.955 705.898 157.864C705.898 153.773 705.322 150.227 704.17 147.227C703.019 144.197 701.352 141.848 699.17 140.182C696.989 138.515 694.337 137.682 691.216 137.682C688.034 137.682 685.352 138.545 683.17 140.273C680.989 141.97 679.337 144.333 678.216 147.364C677.095 150.394 676.534 153.894 676.534 157.864C676.534 161.894 677.095 165.379 678.216 168.318C679.367 171.227 681.019 173.485 683.17 175.091C685.352 176.667 688.034 177.455 691.216 177.455ZM771.898 194.364C764.837 194.364 758.731 192.864 753.58 189.864C748.458 186.833 744.504 182.621 741.716 177.227C738.928 171.803 737.534 165.515 737.534 158.364C737.534 151.152 738.928 144.848 741.716 139.455C744.504 134.03 748.458 129.818 753.58 126.818C758.731 123.788 764.837 122.273 771.898 122.273C778.958 122.273 785.049 123.788 790.17 126.818C795.322 129.818 799.292 134.03 802.08 139.455C804.867 144.848 806.261 151.152 806.261 158.364C806.261 165.515 804.867 171.803 802.08 177.227C799.292 182.621 795.322 186.833 790.17 189.864C785.049 192.864 778.958 194.364 771.898 194.364ZM771.989 179.364C775.201 179.364 777.883 178.455 780.034 176.636C782.186 174.788 783.807 172.273 784.898 169.091C786.019 165.909 786.58 162.288 786.58 158.227C786.58 154.167 786.019 150.545 784.898 147.364C783.807 144.182 782.186 141.667 780.034 139.818C777.883 137.97 775.201 137.045 771.989 137.045C768.746 137.045 766.019 137.97 763.807 139.818C761.625 141.667 759.973 144.182 758.852 147.364C757.761 150.545 757.216 154.167 757.216 158.227C757.216 162.288 757.761 165.909 758.852 169.091C759.973 172.273 761.625 174.788 763.807 176.636C766.019 178.455 768.746 179.364 771.989 179.364ZM818.852 219.182V123.182H837.943V134.909H838.807C839.655 133.03 840.883 131.121 842.489 129.182C844.125 127.212 846.246 125.576 848.852 124.273C851.489 122.939 854.761 122.273 858.67 122.273C863.761 122.273 868.458 123.606 872.761 126.273C877.064 128.909 880.504 132.894 883.08 138.227C885.655 143.53 886.943 150.182 886.943 158.182C886.943 165.97 885.686 172.545 883.17 177.909C880.686 183.242 877.292 187.288 872.989 190.045C868.716 192.773 863.928 194.136 858.625 194.136C854.867 194.136 851.67 193.515 849.034 192.273C846.428 191.03 844.292 189.47 842.625 187.591C840.958 185.682 839.686 183.758 838.807 181.818H838.216V219.182H818.852ZM837.807 158.091C837.807 162.242 838.383 165.864 839.534 168.955C840.686 172.045 842.352 174.455 844.534 176.182C846.716 177.879 849.367 178.727 852.489 178.727C855.64 178.727 858.307 177.864 860.489 176.136C862.67 174.379 864.322 171.955 865.443 168.864C866.595 165.742 867.17 162.152 867.17 158.091C867.17 154.061 866.61 150.515 865.489 147.455C864.367 144.394 862.716 142 860.534 140.273C858.352 138.545 855.67 137.682 852.489 137.682C849.337 137.682 846.67 138.515 844.489 140.182C842.337 141.848 840.686 144.212 839.534 147.273C838.383 150.333 837.807 153.939 837.807 158.091ZM944.625 163.273V123.182H963.989V193H945.398V180.318H944.67C943.095 184.409 940.473 187.697 936.807 190.182C933.17 192.667 928.731 193.909 923.489 193.909C918.822 193.909 914.716 192.848 911.17 190.727C907.625 188.606 904.852 185.591 902.852 181.682C900.883 177.773 899.883 173.091 899.852 167.636V123.182H919.216V164.182C919.246 168.303 920.352 171.561 922.534 173.955C924.716 176.348 927.64 177.545 931.307 177.545C933.64 177.545 935.822 177.015 937.852 175.955C939.883 174.864 941.519 173.258 942.761 171.136C944.034 169.015 944.655 166.394 944.625 163.273ZM1037.57 143.091L1019.84 144.182C1019.54 142.667 1018.89 141.303 1017.89 140.091C1016.89 138.848 1015.57 137.864 1013.93 137.136C1012.33 136.379 1010.4 136 1008.16 136C1005.16 136 1002.63 136.636 1000.57 137.909C998.508 139.152 997.477 140.818 997.477 142.909C997.477 144.576 998.144 145.985 999.477 147.136C1000.81 148.288 1003.1 149.212 1006.34 149.909L1018.98 152.455C1025.77 153.848 1030.83 156.091 1034.16 159.182C1037.49 162.273 1039.16 166.333 1039.16 171.364C1039.16 175.939 1037.81 179.955 1035.11 183.409C1032.45 186.864 1028.78 189.561 1024.11 191.5C1019.48 193.409 1014.13 194.364 1008.07 194.364C998.826 194.364 991.462 192.439 985.977 188.591C980.523 184.712 977.326 179.439 976.386 172.773L995.432 171.773C996.008 174.591 997.402 176.742 999.614 178.227C1001.83 179.682 1004.66 180.409 1008.11 180.409C1011.51 180.409 1014.23 179.758 1016.3 178.455C1018.39 177.121 1019.45 175.409 1019.48 173.318C1019.45 171.561 1018.7 170.121 1017.25 169C1015.8 167.848 1013.55 166.97 1010.52 166.364L998.432 163.955C991.614 162.591 986.538 160.227 983.205 156.864C979.902 153.5 978.25 149.212 978.25 144C978.25 139.515 979.462 135.652 981.886 132.409C984.341 129.167 987.78 126.667 992.205 124.909C996.659 123.152 1001.87 122.273 1007.84 122.273C1016.66 122.273 1023.6 124.136 1028.66 127.864C1033.75 131.591 1036.72 136.667 1037.57 143.091Z" fill="#D9D9D9"/>
<path d="M374.528 229.909H382.114L390.125 249.455H390.466L398.477 229.909H406.062V259H400.097V240.065H399.855L392.327 258.858H388.264L380.736 239.994H380.494V259H374.528V229.909ZM420.874 259.426C418.668 259.426 416.76 258.957 415.15 258.02C413.549 257.073 412.314 255.757 411.442 254.071C410.571 252.376 410.136 250.411 410.136 248.176C410.136 245.922 410.571 243.953 411.442 242.267C412.314 240.572 413.549 239.256 415.15 238.318C416.76 237.371 418.668 236.898 420.874 236.898C423.081 236.898 424.984 237.371 426.585 238.318C428.194 239.256 429.435 240.572 430.306 242.267C431.177 243.953 431.613 245.922 431.613 248.176C431.613 250.411 431.177 252.376 430.306 254.071C429.435 255.757 428.194 257.073 426.585 258.02C424.984 258.957 423.081 259.426 420.874 259.426ZM420.903 254.739C421.906 254.739 422.745 254.455 423.417 253.886C424.089 253.309 424.596 252.523 424.937 251.528C425.287 250.534 425.462 249.402 425.462 248.134C425.462 246.865 425.287 245.733 424.937 244.739C424.596 243.744 424.089 242.958 423.417 242.381C422.745 241.803 421.906 241.514 420.903 241.514C419.889 241.514 419.037 241.803 418.346 242.381C417.664 242.958 417.148 243.744 416.798 244.739C416.457 245.733 416.286 246.865 416.286 248.134C416.286 249.402 416.457 250.534 416.798 251.528C417.148 252.523 417.664 253.309 418.346 253.886C419.037 254.455 419.889 254.739 420.903 254.739ZM443.587 259.355C441.93 259.355 440.429 258.929 439.085 258.077C437.749 257.215 436.689 255.951 435.903 254.284C435.126 252.608 434.738 250.553 434.738 248.119C434.738 245.619 435.14 243.541 435.945 241.884C436.75 240.217 437.82 238.972 439.156 238.148C440.5 237.314 441.973 236.898 443.573 236.898C444.795 236.898 445.813 237.106 446.627 237.523C447.451 237.93 448.114 238.441 448.616 239.057C449.127 239.663 449.515 240.259 449.781 240.847H449.965V229.909H456.002V259H450.036V255.506H449.781C449.496 256.112 449.094 256.713 448.573 257.31C448.062 257.897 447.394 258.384 446.57 258.773C445.756 259.161 444.762 259.355 443.587 259.355ZM445.505 254.54C446.48 254.54 447.304 254.275 447.977 253.744C448.658 253.205 449.179 252.452 449.539 251.486C449.908 250.52 450.093 249.388 450.093 248.091C450.093 246.794 449.913 245.667 449.553 244.71C449.193 243.754 448.673 243.015 447.991 242.494C447.309 241.973 446.48 241.713 445.505 241.713C444.511 241.713 443.673 241.983 442.991 242.523C442.309 243.062 441.793 243.811 441.442 244.767C441.092 245.723 440.917 246.831 440.917 248.091C440.917 249.36 441.092 250.482 441.442 251.457C441.802 252.423 442.318 253.181 442.991 253.73C443.673 254.27 444.511 254.54 445.505 254.54ZM470.92 259.426C468.676 259.426 466.744 258.972 465.125 258.062C463.515 257.144 462.275 255.847 461.403 254.17C460.532 252.485 460.097 250.491 460.097 248.19C460.097 245.946 460.532 243.976 461.403 242.281C462.275 240.586 463.501 239.265 465.082 238.318C466.673 237.371 468.539 236.898 470.679 236.898C472.118 236.898 473.458 237.13 474.699 237.594C475.949 238.048 477.038 238.735 477.966 239.653C478.903 240.572 479.633 241.727 480.153 243.119C480.674 244.502 480.935 246.121 480.935 247.977V249.639H462.511V245.889H475.239C475.239 245.018 475.049 244.246 474.67 243.574C474.292 242.902 473.766 242.376 473.094 241.997C472.431 241.609 471.659 241.415 470.778 241.415C469.86 241.415 469.045 241.628 468.335 242.054C467.634 242.471 467.085 243.034 466.688 243.744C466.29 244.445 466.086 245.226 466.077 246.088V249.653C466.077 250.733 466.276 251.666 466.673 252.452C467.08 253.238 467.653 253.844 468.392 254.27C469.131 254.696 470.007 254.909 471.02 254.909C471.692 254.909 472.308 254.814 472.866 254.625C473.425 254.436 473.903 254.152 474.301 253.773C474.699 253.394 475.002 252.93 475.21 252.381L480.807 252.75C480.523 254.095 479.94 255.269 479.06 256.273C478.188 257.267 477.062 258.044 475.679 258.602C474.306 259.152 472.72 259.426 470.92 259.426ZM484.884 259V237.182H490.75V240.989H490.977C491.375 239.634 492.043 238.612 492.98 237.92C493.918 237.22 494.997 236.869 496.219 236.869C496.522 236.869 496.848 236.888 497.199 236.926C497.549 236.964 497.857 237.016 498.122 237.082V242.452C497.838 242.366 497.445 242.291 496.943 242.224C496.441 242.158 495.982 242.125 495.565 242.125C494.675 242.125 493.88 242.319 493.179 242.707C492.488 243.086 491.938 243.616 491.531 244.298C491.134 244.98 490.935 245.766 490.935 246.656V259H484.884ZM507.302 246.386V259H501.251V237.182H507.018V241.031H507.273C507.756 239.762 508.566 238.759 509.702 238.02C510.839 237.272 512.217 236.898 513.836 236.898C515.351 236.898 516.672 237.229 517.799 237.892C518.926 238.555 519.802 239.502 520.427 240.733C521.052 241.955 521.364 243.413 521.364 245.108V259H515.313V246.188C515.323 244.852 514.982 243.811 514.29 243.062C513.599 242.305 512.647 241.926 511.435 241.926C510.621 241.926 509.901 242.101 509.276 242.452C508.661 242.802 508.178 243.313 507.827 243.986C507.487 244.649 507.311 245.449 507.302 246.386ZM529.67 259.369C528.733 259.369 527.928 259.038 527.256 258.375C526.593 257.703 526.261 256.898 526.261 255.96C526.261 255.032 526.593 254.237 527.256 253.574C527.928 252.911 528.733 252.58 529.67 252.58C530.58 252.58 531.375 252.911 532.057 253.574C532.739 254.237 533.08 255.032 533.08 255.96C533.08 256.585 532.919 257.158 532.597 257.679C532.284 258.19 531.872 258.602 531.361 258.915C530.849 259.218 530.286 259.369 529.67 259.369ZM561.833 238.276C561.719 237.13 561.232 236.24 560.37 235.605C559.508 234.971 558.339 234.653 556.862 234.653C555.858 234.653 555.01 234.795 554.319 235.08C553.628 235.354 553.097 235.738 552.728 236.23C552.368 236.723 552.188 237.281 552.188 237.906C552.169 238.427 552.278 238.882 552.515 239.27C552.761 239.658 553.097 239.994 553.523 240.278C553.95 240.553 554.442 240.795 555.001 241.003C555.559 241.202 556.156 241.372 556.79 241.514L559.404 242.139C560.673 242.423 561.838 242.802 562.898 243.276C563.959 243.749 564.878 244.331 565.654 245.023C566.431 245.714 567.032 246.528 567.458 247.466C567.894 248.403 568.116 249.478 568.126 250.69C568.116 252.471 567.662 254.014 566.762 255.321C565.872 256.618 564.584 257.627 562.898 258.347C561.222 259.057 559.201 259.412 556.833 259.412C554.485 259.412 552.439 259.052 550.697 258.332C548.964 257.613 547.61 256.547 546.634 255.136C545.668 253.716 545.162 251.959 545.114 249.866H551.066C551.132 250.842 551.412 251.656 551.904 252.31C552.406 252.954 553.074 253.441 553.907 253.773C554.75 254.095 555.701 254.256 556.762 254.256C557.804 254.256 558.708 254.104 559.475 253.801C560.252 253.498 560.853 253.077 561.279 252.537C561.705 251.997 561.918 251.377 561.918 250.676C561.918 250.023 561.724 249.473 561.336 249.028C560.957 248.583 560.398 248.205 559.66 247.892C558.931 247.58 558.036 247.295 556.975 247.04L553.808 246.244C551.355 245.648 549.418 244.715 547.998 243.446C546.577 242.177 545.872 240.468 545.881 238.318C545.872 236.557 546.341 235.018 547.288 233.702C548.244 232.385 549.556 231.358 551.222 230.619C552.889 229.881 554.783 229.511 556.904 229.511C559.063 229.511 560.948 229.881 562.558 230.619C564.177 231.358 565.436 232.385 566.336 233.702C567.236 235.018 567.7 236.543 567.728 238.276H561.833ZM582.092 259.426C579.848 259.426 577.916 258.972 576.297 258.062C574.687 257.144 573.446 255.847 572.575 254.17C571.704 252.485 571.268 250.491 571.268 248.19C571.268 245.946 571.704 243.976 572.575 242.281C573.446 240.586 574.673 239.265 576.254 238.318C577.845 237.371 579.711 236.898 581.851 236.898C583.29 236.898 584.63 237.13 585.871 237.594C587.121 238.048 588.21 238.735 589.138 239.653C590.075 240.572 590.804 241.727 591.325 243.119C591.846 244.502 592.107 246.121 592.107 247.977V249.639H573.683V245.889H586.411C586.411 245.018 586.221 244.246 585.842 243.574C585.464 242.902 584.938 242.376 584.266 241.997C583.603 241.609 582.831 241.415 581.95 241.415C581.032 241.415 580.217 241.628 579.507 242.054C578.806 242.471 578.257 243.034 577.859 243.744C577.462 244.445 577.258 245.226 577.249 246.088V249.653C577.249 250.733 577.447 251.666 577.845 252.452C578.252 253.238 578.825 253.844 579.564 254.27C580.303 254.696 581.179 254.909 582.192 254.909C582.864 254.909 583.48 254.814 584.038 254.625C584.597 254.436 585.075 254.152 585.473 253.773C585.871 253.394 586.174 252.93 586.382 252.381L591.979 252.75C591.695 254.095 591.112 255.269 590.232 256.273C589.36 257.267 588.233 258.044 586.851 258.602C585.478 259.152 583.892 259.426 582.092 259.426ZM605.913 259.426C603.679 259.426 601.756 258.953 600.146 258.006C598.546 257.049 597.315 255.723 596.453 254.028C595.601 252.333 595.175 250.383 595.175 248.176C595.175 245.941 595.606 243.981 596.467 242.295C597.339 240.6 598.574 239.279 600.175 238.332C601.775 237.376 603.679 236.898 605.885 236.898C607.788 236.898 609.455 237.243 610.885 237.935C612.315 238.626 613.446 239.597 614.28 240.847C615.113 242.097 615.572 243.564 615.658 245.25H609.947C609.786 244.161 609.36 243.285 608.669 242.622C607.987 241.95 607.092 241.614 605.984 241.614C605.047 241.614 604.228 241.869 603.527 242.381C602.836 242.883 602.296 243.616 601.908 244.582C601.519 245.548 601.325 246.718 601.325 248.091C601.325 249.483 601.515 250.667 601.893 251.642C602.282 252.617 602.826 253.361 603.527 253.872C604.228 254.384 605.047 254.639 605.984 254.639C606.676 254.639 607.296 254.497 607.845 254.213C608.404 253.929 608.863 253.517 609.223 252.977C609.592 252.428 609.834 251.77 609.947 251.003H615.658C615.563 252.67 615.108 254.137 614.294 255.406C613.489 256.666 612.376 257.651 610.956 258.361C609.536 259.071 607.855 259.426 605.913 259.426ZM633.523 249.71V237.182H639.575V259H633.765V255.037H633.538C633.045 256.315 632.226 257.343 631.08 258.119C629.944 258.896 628.557 259.284 626.918 259.284C625.46 259.284 624.177 258.953 623.069 258.29C621.961 257.627 621.094 256.685 620.469 255.463C619.854 254.241 619.541 252.778 619.532 251.074V237.182H625.583V249.994C625.593 251.282 625.938 252.3 626.62 253.048C627.302 253.796 628.216 254.17 629.362 254.17C630.091 254.17 630.772 254.005 631.407 253.673C632.041 253.332 632.553 252.83 632.941 252.168C633.339 251.505 633.533 250.686 633.523 249.71ZM644.415 259V237.182H650.281V240.989H650.509C650.906 239.634 651.574 238.612 652.511 237.92C653.449 237.22 654.528 236.869 655.75 236.869C656.053 236.869 656.38 236.888 656.73 236.926C657.08 236.964 657.388 237.016 657.653 237.082V242.452C657.369 242.366 656.976 242.291 656.474 242.224C655.973 242.158 655.513 242.125 655.097 242.125C654.206 242.125 653.411 242.319 652.71 242.707C652.019 243.086 651.47 243.616 651.062 244.298C650.665 244.98 650.466 245.766 650.466 246.656V259H644.415ZM669.71 259.426C667.465 259.426 665.533 258.972 663.914 258.062C662.304 257.144 661.064 255.847 660.192 254.17C659.321 252.485 658.886 250.491 658.886 248.19C658.886 245.946 659.321 243.976 660.192 242.281C661.064 240.586 662.29 239.265 663.871 238.318C665.462 237.371 667.328 236.898 669.468 236.898C670.907 236.898 672.247 237.13 673.488 237.594C674.738 238.048 675.827 238.735 676.755 239.653C677.692 240.572 678.422 241.727 678.942 243.119C679.463 244.502 679.724 246.121 679.724 247.977V249.639H661.3V245.889H674.028C674.028 245.018 673.838 244.246 673.46 243.574C673.081 242.902 672.555 242.376 671.883 241.997C671.22 241.609 670.448 241.415 669.567 241.415C668.649 241.415 667.835 241.628 667.124 242.054C666.424 242.471 665.874 243.034 665.477 243.744C665.079 244.445 664.875 245.226 664.866 246.088V249.653C664.866 250.733 665.065 251.666 665.462 252.452C665.87 253.238 666.442 253.844 667.181 254.27C667.92 254.696 668.796 254.909 669.809 254.909C670.481 254.909 671.097 254.814 671.656 254.625C672.214 254.436 672.692 254.152 673.09 253.773C673.488 253.394 673.791 252.93 673.999 252.381L679.596 252.75C679.312 254.095 678.729 255.269 677.849 256.273C676.978 257.267 675.851 258.044 674.468 258.602C673.095 259.152 671.509 259.426 669.71 259.426ZM687.21 259.369C686.272 259.369 685.467 259.038 684.795 258.375C684.132 257.703 683.8 256.898 683.8 255.96C683.8 255.032 684.132 254.237 684.795 253.574C685.467 252.911 686.272 252.58 687.21 252.58C688.119 252.58 688.914 252.911 689.596 253.574C690.278 254.237 690.619 255.032 690.619 255.96C690.619 256.585 690.458 257.158 690.136 257.679C689.823 258.19 689.411 258.602 688.9 258.915C688.388 259.218 687.825 259.369 687.21 259.369ZM703.591 259V229.909H722.852V234.98H709.741V241.912H721.574V246.983H709.741V259H703.591ZM732.824 259.412C731.432 259.412 730.191 259.17 729.102 258.688C728.013 258.195 727.152 257.471 726.517 256.514C725.892 255.548 725.58 254.346 725.58 252.906C725.58 251.694 725.802 250.676 726.247 249.852C726.692 249.028 727.298 248.366 728.065 247.864C728.832 247.362 729.704 246.983 730.679 246.727C731.664 246.472 732.696 246.292 733.776 246.188C735.045 246.055 736.067 245.932 736.844 245.818C737.62 245.695 738.184 245.515 738.534 245.278C738.884 245.042 739.06 244.691 739.06 244.227V244.142C739.06 243.242 738.776 242.546 738.207 242.054C737.649 241.562 736.853 241.315 735.821 241.315C734.732 241.315 733.866 241.557 733.222 242.04C732.578 242.513 732.152 243.11 731.943 243.83L726.347 243.375C726.631 242.049 727.189 240.903 728.023 239.938C728.856 238.962 729.931 238.214 731.247 237.693C732.573 237.163 734.107 236.898 735.849 236.898C737.062 236.898 738.222 237.04 739.33 237.324C740.447 237.608 741.437 238.048 742.298 238.645C743.17 239.241 743.856 240.009 744.358 240.946C744.86 241.874 745.111 242.987 745.111 244.284V259H739.372V255.974H739.202C738.851 256.656 738.383 257.258 737.795 257.778C737.208 258.29 736.503 258.692 735.679 258.986C734.855 259.27 733.903 259.412 732.824 259.412ZM734.557 255.236C735.447 255.236 736.233 255.061 736.915 254.71C737.597 254.35 738.132 253.867 738.52 253.261C738.908 252.655 739.102 251.969 739.102 251.202V248.886C738.913 249.009 738.652 249.123 738.321 249.227C737.999 249.322 737.634 249.412 737.227 249.497C736.82 249.573 736.413 249.644 736.006 249.71C735.598 249.767 735.229 249.819 734.898 249.866C734.188 249.971 733.567 250.136 733.037 250.364C732.507 250.591 732.095 250.899 731.801 251.287C731.508 251.666 731.361 252.139 731.361 252.707C731.361 253.531 731.659 254.161 732.256 254.597C732.862 255.023 733.629 255.236 734.557 255.236ZM767.959 243.403L762.419 243.744C762.324 243.271 762.121 242.845 761.808 242.466C761.496 242.078 761.084 241.77 760.572 241.543C760.071 241.306 759.469 241.188 758.768 241.188C757.831 241.188 757.04 241.386 756.396 241.784C755.752 242.172 755.43 242.693 755.43 243.347C755.43 243.867 755.639 244.308 756.055 244.668C756.472 245.027 757.187 245.316 758.2 245.534L762.149 246.33C764.27 246.765 765.852 247.466 766.893 248.432C767.935 249.398 768.456 250.667 768.456 252.239C768.456 253.669 768.035 254.923 767.192 256.003C766.358 257.082 765.213 257.925 763.754 258.531C762.305 259.128 760.634 259.426 758.74 259.426C755.852 259.426 753.551 258.825 751.837 257.622C750.132 256.41 749.133 254.762 748.839 252.679L754.791 252.366C754.971 253.247 755.407 253.92 756.098 254.384C756.789 254.838 757.675 255.065 758.754 255.065C759.815 255.065 760.667 254.862 761.311 254.455C761.964 254.038 762.296 253.503 762.305 252.849C762.296 252.3 762.064 251.85 761.609 251.5C761.155 251.14 760.454 250.866 759.507 250.676L755.729 249.923C753.598 249.497 752.012 248.759 750.97 247.707C749.938 246.656 749.422 245.316 749.422 243.688C749.422 242.286 749.801 241.079 750.558 240.065C751.325 239.052 752.4 238.271 753.783 237.722C755.175 237.172 756.804 236.898 758.669 236.898C761.425 236.898 763.593 237.48 765.175 238.645C766.766 239.81 767.694 241.396 767.959 243.403ZM783.871 237.182V241.727H770.732V237.182H783.871ZM773.715 231.955H779.766V252.295C779.766 252.854 779.852 253.29 780.022 253.602C780.192 253.905 780.429 254.118 780.732 254.241C781.045 254.365 781.405 254.426 781.812 254.426C782.096 254.426 782.38 254.402 782.664 254.355C782.948 254.298 783.166 254.256 783.317 254.227L784.269 258.73C783.966 258.825 783.54 258.934 782.991 259.057C782.442 259.189 781.774 259.27 780.988 259.298C779.53 259.355 778.251 259.161 777.153 258.716C776.064 258.271 775.216 257.58 774.61 256.642C774.004 255.705 773.706 254.521 773.715 253.091V231.955ZM791.35 259.369C790.413 259.369 789.608 259.038 788.935 258.375C788.272 257.703 787.941 256.898 787.941 255.96C787.941 255.032 788.272 254.237 788.935 253.574C789.608 252.911 790.413 252.58 791.35 252.58C792.259 252.58 793.055 252.911 793.737 253.574C794.418 254.237 794.759 255.032 794.759 255.96C794.759 256.585 794.598 257.158 794.276 257.679C793.964 258.19 793.552 258.602 793.04 258.915C792.529 259.218 791.966 259.369 791.35 259.369Z" fill="#74C0FC"/>
<defs>
<clipPath id="clip0_27_2">
<rect width="251" height="328" fill="white" transform="translate(67 9)"/>
</clipPath>
</defs>
</svg>
